<mxfile host="Electron" agent="Mozilla/5.0 (Windows NT 10.0; Win64; x64) AppleWebKit/537.36 (KHTML, like Gecko) draw.io/26.0.16 Chrome/132.0.6834.196 Electron/34.2.0 Safari/537.36" version="26.0.16">
  <diagram name="Page-1" id="R6ZC-7xA1Zm-AV0E4mAt">
    <mxGraphModel dx="780" dy="544" grid="1" gridSize="10" guides="1" tooltips="1" connect="1" arrows="1" fold="1" page="1" pageScale="1" pageWidth="827" pageHeight="1169" math="0" shadow="0">
      <root>
        <mxCell id="0" />
        <mxCell id="1" parent="0" />
        <mxCell id="O5lUvU4Kd5LbRV42L9W2-1" value="User" style="swimlane;fontStyle=0;childLayout=stackLayout;horizontal=1;startSize=30;horizontalStack=0;resizeParent=1;resizeParentMax=0;resizeLast=0;collapsible=1;marginBottom=0;whiteSpace=wrap;html=1;" vertex="1" parent="1">
          <mxGeometry x="420" y="180" width="140" height="150" as="geometry" />
        </mxCell>
        <mxCell id="O5lUvU4Kd5LbRV42L9W2-2" value="&amp;nbsp;User ID (PK)" style="text;strokeColor=none;fillColor=none;align=left;verticalAlign=middle;spacingLeft=4;spacingRight=4;overflow=hidden;points=[[0,0.5],[1,0.5]];portConstraint=eastwest;rotatable=0;whiteSpace=wrap;html=1;" vertex="1" parent="O5lUvU4Kd5LbRV42L9W2-1">
          <mxGeometry y="30" width="140" height="30" as="geometry" />
        </mxCell>
        <mxCell id="O5lUvU4Kd5LbRV42L9W2-3" value="email" style="text;strokeColor=none;fillColor=none;align=left;verticalAlign=middle;spacingLeft=4;spacingRight=4;overflow=hidden;points=[[0,0.5],[1,0.5]];portConstraint=eastwest;rotatable=0;whiteSpace=wrap;html=1;" vertex="1" parent="O5lUvU4Kd5LbRV42L9W2-1">
          <mxGeometry y="60" width="140" height="30" as="geometry" />
        </mxCell>
        <mxCell id="O5lUvU4Kd5LbRV42L9W2-4" value="userName" style="text;strokeColor=none;fillColor=none;align=left;verticalAlign=middle;spacingLeft=4;spacingRight=4;overflow=hidden;points=[[0,0.5],[1,0.5]];portConstraint=eastwest;rotatable=0;whiteSpace=wrap;html=1;" vertex="1" parent="O5lUvU4Kd5LbRV42L9W2-1">
          <mxGeometry y="90" width="140" height="30" as="geometry" />
        </mxCell>
        <mxCell id="O5lUvU4Kd5LbRV42L9W2-32" value="profile picture" style="text;strokeColor=none;fillColor=none;align=left;verticalAlign=middle;spacingLeft=4;spacingRight=4;overflow=hidden;points=[[0,0.5],[1,0.5]];portConstraint=eastwest;rotatable=0;whiteSpace=wrap;html=1;" vertex="1" parent="O5lUvU4Kd5LbRV42L9W2-1">
          <mxGeometry y="120" width="140" height="30" as="geometry" />
        </mxCell>
        <mxCell id="O5lUvU4Kd5LbRV42L9W2-5" value="Song" style="swimlane;fontStyle=0;childLayout=stackLayout;horizontal=1;startSize=30;horizontalStack=0;resizeParent=1;resizeParentMax=0;resizeLast=0;collapsible=1;marginBottom=0;whiteSpace=wrap;html=1;" vertex="1" parent="1">
          <mxGeometry x="90" y="180" width="140" height="150" as="geometry" />
        </mxCell>
        <mxCell id="O5lUvU4Kd5LbRV42L9W2-6" value="SongId (PK)" style="text;strokeColor=none;fillColor=none;align=left;verticalAlign=middle;spacingLeft=4;spacingRight=4;overflow=hidden;points=[[0,0.5],[1,0.5]];portConstraint=eastwest;rotatable=0;whiteSpace=wrap;html=1;" vertex="1" parent="O5lUvU4Kd5LbRV42L9W2-5">
          <mxGeometry y="30" width="140" height="30" as="geometry" />
        </mxCell>
        <mxCell id="O5lUvU4Kd5LbRV42L9W2-7" value="user ID (FK)" style="text;strokeColor=none;fillColor=none;align=left;verticalAlign=middle;spacingLeft=4;spacingRight=4;overflow=hidden;points=[[0,0.5],[1,0.5]];portConstraint=eastwest;rotatable=0;whiteSpace=wrap;html=1;" vertex="1" parent="O5lUvU4Kd5LbRV42L9W2-5">
          <mxGeometry y="60" width="140" height="30" as="geometry" />
        </mxCell>
        <mxCell id="O5lUvU4Kd5LbRV42L9W2-8" value="FileType" style="text;strokeColor=none;fillColor=none;align=left;verticalAlign=middle;spacingLeft=4;spacingRight=4;overflow=hidden;points=[[0,0.5],[1,0.5]];portConstraint=eastwest;rotatable=0;whiteSpace=wrap;html=1;" vertex="1" parent="O5lUvU4Kd5LbRV42L9W2-5">
          <mxGeometry y="90" width="140" height="30" as="geometry" />
        </mxCell>
        <mxCell id="O5lUvU4Kd5LbRV42L9W2-31" value="Genre" style="text;strokeColor=none;fillColor=none;align=left;verticalAlign=middle;spacingLeft=4;spacingRight=4;overflow=hidden;points=[[0,0.5],[1,0.5]];portConstraint=eastwest;rotatable=0;whiteSpace=wrap;html=1;" vertex="1" parent="O5lUvU4Kd5LbRV42L9W2-5">
          <mxGeometry y="120" width="140" height="30" as="geometry" />
        </mxCell>
        <mxCell id="O5lUvU4Kd5LbRV42L9W2-9" value="Playlist" style="swimlane;fontStyle=0;childLayout=stackLayout;horizontal=1;startSize=30;horizontalStack=0;resizeParent=1;resizeParentMax=0;resizeLast=0;collapsible=1;marginBottom=0;whiteSpace=wrap;html=1;" vertex="1" parent="1">
          <mxGeometry x="260" y="350" width="140" height="150" as="geometry" />
        </mxCell>
        <mxCell id="O5lUvU4Kd5LbRV42L9W2-10" value="Playlist ID {PK}" style="text;strokeColor=none;fillColor=none;align=left;verticalAlign=middle;spacingLeft=4;spacingRight=4;overflow=hidden;points=[[0,0.5],[1,0.5]];portConstraint=eastwest;rotatable=0;whiteSpace=wrap;html=1;" vertex="1" parent="O5lUvU4Kd5LbRV42L9W2-9">
          <mxGeometry y="30" width="140" height="30" as="geometry" />
        </mxCell>
        <mxCell id="O5lUvU4Kd5LbRV42L9W2-11" value="userID&amp;nbsp; {fk1}" style="text;strokeColor=none;fillColor=none;align=left;verticalAlign=middle;spacingLeft=4;spacingRight=4;overflow=hidden;points=[[0,0.5],[1,0.5]];portConstraint=eastwest;rotatable=0;whiteSpace=wrap;html=1;" vertex="1" parent="O5lUvU4Kd5LbRV42L9W2-9">
          <mxGeometry y="60" width="140" height="30" as="geometry" />
        </mxCell>
        <mxCell id="O5lUvU4Kd5LbRV42L9W2-12" value="SongID {fk2}" style="text;strokeColor=none;fillColor=none;align=left;verticalAlign=middle;spacingLeft=4;spacingRight=4;overflow=hidden;points=[[0,0.5],[1,0.5]];portConstraint=eastwest;rotatable=0;whiteSpace=wrap;html=1;" vertex="1" parent="O5lUvU4Kd5LbRV42L9W2-9">
          <mxGeometry y="90" width="140" height="30" as="geometry" />
        </mxCell>
        <mxCell id="O5lUvU4Kd5LbRV42L9W2-33" value="Name" style="text;strokeColor=none;fillColor=none;align=left;verticalAlign=middle;spacingLeft=4;spacingRight=4;overflow=hidden;points=[[0,0.5],[1,0.5]];portConstraint=eastwest;rotatable=0;whiteSpace=wrap;html=1;" vertex="1" parent="O5lUvU4Kd5LbRV42L9W2-9">
          <mxGeometry y="120" width="140" height="30" as="geometry" />
        </mxCell>
        <mxCell id="O5lUvU4Kd5LbRV42L9W2-15" value="Listens" style="text;html=1;align=center;verticalAlign=middle;whiteSpace=wrap;rounded=0;" vertex="1" parent="1">
          <mxGeometry x="280" y="40" width="60" height="30" as="geometry" />
        </mxCell>
        <mxCell id="O5lUvU4Kd5LbRV42L9W2-16" value="accesses" style="text;html=1;align=center;verticalAlign=middle;whiteSpace=wrap;rounded=0;" vertex="1" parent="1">
          <mxGeometry x="190" y="20" width="60" height="30" as="geometry" />
        </mxCell>
        <mxCell id="O5lUvU4Kd5LbRV42L9W2-20" value="" style="group" vertex="1" connectable="0" parent="1">
          <mxGeometry x="520" y="370" width="70" height="30" as="geometry" />
        </mxCell>
        <mxCell id="O5lUvU4Kd5LbRV42L9W2-17" value="Creates" style="text;html=1;align=center;verticalAlign=middle;whiteSpace=wrap;rounded=0;" vertex="1" parent="O5lUvU4Kd5LbRV42L9W2-20">
          <mxGeometry x="10" width="60" height="30" as="geometry" />
        </mxCell>
        <mxCell id="O5lUvU4Kd5LbRV42L9W2-19" value="" style="endArrow=classic;html=1;rounded=0;" edge="1" parent="O5lUvU4Kd5LbRV42L9W2-20">
          <mxGeometry width="50" height="50" relative="1" as="geometry">
            <mxPoint x="70" y="30" as="sourcePoint" />
            <mxPoint y="30" as="targetPoint" />
          </mxGeometry>
        </mxCell>
        <mxCell id="O5lUvU4Kd5LbRV42L9W2-21" value="0..*" style="text;html=1;align=center;verticalAlign=middle;whiteSpace=wrap;rounded=0;" vertex="1" parent="1">
          <mxGeometry x="200" y="430" width="60" height="30" as="geometry" />
        </mxCell>
        <mxCell id="O5lUvU4Kd5LbRV42L9W2-22" value="1..*" style="text;html=1;align=center;verticalAlign=middle;whiteSpace=wrap;rounded=0;" vertex="1" parent="1">
          <mxGeometry x="400" y="430" width="60" height="30" as="geometry" />
        </mxCell>
        <mxCell id="O5lUvU4Kd5LbRV42L9W2-23" style="edgeStyle=orthogonalEdgeStyle;rounded=0;orthogonalLoop=1;jettySize=auto;html=1;exitX=0;exitY=0.5;exitDx=0;exitDy=0;" edge="1" parent="1" source="O5lUvU4Kd5LbRV42L9W2-11">
          <mxGeometry relative="1" as="geometry">
            <mxPoint x="140" y="340" as="targetPoint" />
          </mxGeometry>
        </mxCell>
        <mxCell id="O5lUvU4Kd5LbRV42L9W2-24" style="edgeStyle=orthogonalEdgeStyle;rounded=0;orthogonalLoop=1;jettySize=auto;html=1;exitX=1;exitY=0.5;exitDx=0;exitDy=0;" edge="1" parent="1" source="O5lUvU4Kd5LbRV42L9W2-11">
          <mxGeometry relative="1" as="geometry">
            <mxPoint x="506" y="330" as="targetPoint" />
          </mxGeometry>
        </mxCell>
        <mxCell id="O5lUvU4Kd5LbRV42L9W2-25" value="1..1" style="text;html=1;align=center;verticalAlign=middle;whiteSpace=wrap;rounded=0;" vertex="1" parent="1">
          <mxGeometry x="430" y="330" width="60" height="30" as="geometry" />
        </mxCell>
        <mxCell id="O5lUvU4Kd5LbRV42L9W2-26" value="0..1" style="text;html=1;align=center;verticalAlign=middle;whiteSpace=wrap;rounded=0;" vertex="1" parent="1">
          <mxGeometry x="160" y="330" width="60" height="30" as="geometry" />
        </mxCell>
        <mxCell id="O5lUvU4Kd5LbRV42L9W2-30" value="" style="group" vertex="1" connectable="0" parent="1">
          <mxGeometry x="50" y="370" width="70" height="30" as="geometry" />
        </mxCell>
        <mxCell id="O5lUvU4Kd5LbRV42L9W2-28" value="is Added" style="text;html=1;align=center;verticalAlign=middle;whiteSpace=wrap;rounded=0;container=0;" vertex="1" parent="O5lUvU4Kd5LbRV42L9W2-30">
          <mxGeometry x="10" width="60" height="30" as="geometry" />
        </mxCell>
        <mxCell id="O5lUvU4Kd5LbRV42L9W2-29" value="" style="endArrow=classic;html=1;rounded=0;" edge="1" parent="O5lUvU4Kd5LbRV42L9W2-30">
          <mxGeometry width="50" height="50" relative="1" as="geometry">
            <mxPoint y="30" as="sourcePoint" />
            <mxPoint x="70" y="30" as="targetPoint" />
          </mxGeometry>
        </mxCell>
      </root>
    </mxGraphModel>
  </diagram>
</mxfile>
